<?xml version="1.0" standalone="no"?>
<!DOCTYPE svg PUBLIC "-//W3C//DTD SVG 20010904//EN"
 "http://www.w3.org/TR/2001/REC-SVG-20010904/DTD/svg10.dtd">
<svg version="1.0" xmlns="http://www.w3.org/2000/svg"
 width="1894.000000pt" height="578.000000pt" viewBox="0 0 1894.000000 578.000000"
 preserveAspectRatio="xMidYMid meet">

<g transform="translate(0.000000,578.000000) scale(0.100000,-0.100000)"
fill="#000000" stroke="none">
<path d="M3105 3990 c4 -6 -35 -10 -110 -10 -75 0 -114 -4 -110 -10 4 -6 -12
-10 -39 -10 -25 0 -46 -4 -46 -10 0 -5 -13 -10 -30 -10 -16 0 -30 -4 -30 -10
0 -5 -8 -10 -18 -10 -30 0 -183 -82 -252 -134 -36 -27 -70 -49 -77 -49 -6 0
-11 -3 -10 -7 3 -11 -125 -155 -135 -152 -5 1 -7 -2 -3 -8 8 -13 -30 -62 -40
-52 -4 4 -6 0 -3 -8 2 -8 -10 -46 -28 -85 -72 -156 -94 -260 -94 -435 0 -130
4 -160 33 -280 6 -25 12 -47 13 -50 0 -3 6 -18 12 -33 7 -16 12 -31 12 -35 0
-4 11 -29 25 -56 14 -27 25 -54 25 -60 0 -7 9 -18 20 -26 11 -8 20 -20 20 -27
0 -7 18 -32 40 -54 22 -23 40 -48 40 -55 0 -8 6 -14 14 -14 8 0 17 -8 20 -18
3 -9 16 -22 28 -27 13 -6 22 -16 20 -23 -1 -7 7 -12 18 -12 11 0 20 -4 20 -8
0 -5 11 -15 25 -22 13 -7 22 -17 19 -22 -3 -4 4 -8 15 -8 12 0 21 -4 21 -10 0
-5 7 -10 16 -10 8 0 12 -4 9 -10 -3 -5 3 -10 14 -10 12 0 21 -4 21 -10 0 -5 9
-10 20 -10 11 0 20 -4 20 -10 0 -5 9 -10 20 -10 11 0 20 -4 20 -10 0 -5 14
-10 30 -10 17 0 30 -4 30 -8 0 -5 15 -9 32 -10 18 0 34 -6 36 -11 2 -6 19 -11
38 -11 19 0 34 -4 34 -10 0 -6 33 -10 78 -10 53 0 72 -3 62 -10 -10 -6 19 -9
89 -9 62 1 98 5 90 10 -9 5 25 9 86 10 65 0 93 3 80 9 -17 7 -14 9 13 9 18 1
43 6 54 12 15 8 19 8 14 0 -10 -16 3 -14 20 3 7 8 23 12 34 9 11 -3 20 0 20 6
0 6 9 11 20 11 11 0 20 5 20 10 0 6 9 10 20 10 11 0 20 5 20 10 0 6 9 10 20
10 11 0 20 5 20 10 0 6 8 10 18 10 10 0 24 9 32 20 8 11 21 20 30 20 9 0 22 9
30 20 8 11 20 20 27 20 15 0 143 126 143 141 0 6 5 7 10 4 6 -3 10 2 10 12 0
10 9 25 20 33 11 8 20 20 20 28 0 7 5 10 12 6 6 -4 8 -3 4 4 -3 6 1 17 9 25 8
9 15 21 15 27 0 6 5 8 10 5 6 -4 10 5 10 20 0 15 4 24 10 20 6 -4 10 8 10 29
0 20 5 36 10 36 6 0 10 12 10 28 0 21 2 24 10 12 7 -11 10 -2 10 33 0 26 5 47
10 47 6 0 10 11 10 25 0 14 5 25 10 25 6 0 10 5 10 11 0 5 -4 7 -10 4 -5 -3
-10 -1 -10 4 0 6 5 11 10 11 6 0 10 36 10 88 0 60 3 82 10 72 7 -11 10 1 9 40
0 40 -3 49 -9 35 -6 -13 -9 14 -9 78 -1 63 -5 96 -11 92 -6 -4 -10 16 -11 52
0 42 -3 52 -9 38 -6 -15 -9 -7 -9 30 -1 36 -4 46 -11 35 -7 -11 -10 -7 -10 18
0 17 -4 32 -10 32 -5 0 -10 9 -10 20 0 11 -4 20 -10 20 -5 0 -10 9 -10 20 0
11 -4 20 -10 20 -5 0 -10 8 -10 18 0 10 -9 24 -20 32 -11 8 -20 20 -20 28 0 7
-13 25 -30 39 -16 13 -30 33 -30 44 0 13 -5 17 -17 12 -13 -5 -15 -2 -10 11 4
10 3 15 -3 11 -6 -3 -10 -1 -10 5 0 13 -30 46 -39 44 -3 -1 -5 2 -3 8 1 5 -2
7 -7 4 -5 -4 -21 5 -35 19 -14 14 -30 25 -36 25 -6 0 -8 5 -5 10 3 6 -2 10
-12 10 -22 1 -55 24 -46 33 3 4 -1 7 -9 7 -18 0 -141 61 -146 73 -2 4 -17 7
-33 7 -16 0 -29 5 -29 10 0 6 -13 10 -30 10 -16 0 -30 5 -30 10 0 6 -23 10
-51 10 -31 0 -48 4 -44 10 4 6 -28 10 -89 10 -57 0 -96 4 -96 10 0 6 -5 10
-11 10 -5 0 -7 -4 -4 -10z m5 -320 c-42 -7 -40 -8 25 -8 139 -1 162 -3 140
-12 -15 -6 -8 -9 28 -9 29 -1 46 -5 42 -11 -4 -6 7 -10 24 -10 17 0 31 -4 31
-10 0 -5 9 -10 20 -10 11 0 20 -4 20 -10 0 -5 8 -10 18 -10 10 0 24 -9 32 -20
8 -11 20 -20 28 -20 7 0 10 -4 7 -10 -3 -5 1 -10 10 -10 31 0 132 -118 176
-205 23 -46 39 -90 36 -98 -3 -9 -1 -17 5 -19 5 -2 11 -17 13 -33 1 -17 6 -37
9 -46 8 -18 2 -267 -7 -312 -10 -52 -53 -152 -91 -212 -22 -34 -157 -175 -168
-175 -4 0 -23 -11 -43 -24 -21 -14 -43 -22 -52 -19 -11 4 -14 2 -9 -5 5 -8 0
-12 -13 -12 -12 0 -21 -4 -21 -10 0 -5 -13 -10 -30 -10 -16 0 -30 -4 -30 -10
0 -5 -16 -10 -35 -10 -19 0 -35 -4 -35 -9 0 -6 -54 -9 -132 -7 -140 4 -208 12
-208 27 0 5 -13 9 -30 9 -16 0 -30 5 -30 10 0 6 -6 10 -12 9 -27 -3 -39 1 -32
13 4 7 3 8 -4 4 -13 -8 -72 20 -72 34 0 6 -6 9 -12 7 -7 -1 -12 4 -10 11 1 8
-2 11 -7 8 -13 -8 -131 109 -131 129 0 9 -4 14 -8 11 -14 -8 -52 51 -52 79 0
15 -4 24 -10 20 -6 -4 -10 5 -10 20 0 15 -4 24 -10 20 -6 -4 -10 9 -10 32 0
28 -3 34 -10 23 -7 -11 -10 0 -10 38 0 28 -4 52 -9 52 -5 0 -9 50 -10 110 -2
84 1 110 11 110 9 0 9 3 -2 11 -11 8 -12 12 -2 16 7 3 12 23 12 51 0 35 3 43
11 32 8 -12 10 -10 8 10 -1 14 -1 34 0 45 1 17 3 18 11 5 8 -12 10 -11 8 5 -3
38 2 56 13 50 6 -4 10 -1 8 6 -3 27 1 40 11 34 6 -3 10 3 10 14 0 11 8 26 19
33 10 7 18 17 18 23 0 5 9 14 19 20 10 5 44 36 75 68 32 31 64 57 71 57 8 0
20 9 28 20 8 11 22 20 32 20 10 0 18 5 18 10 0 6 14 10 30 10 17 0 30 5 30 10
0 6 19 10 43 11 31 0 37 2 22 8 -16 7 -13 9 20 15 22 3 55 4 73 1 17 -2 32 0
32 5 0 6 24 9 53 8 l52 -1 -45 -7z"/>
<path d="M4410 3970 c0 -6 -6 -10 -14 -10 -23 0 -66 -40 -81 -77 -18 -43 -20
-124 -3 -141 7 -7 9 -12 6 -12 -3 0 -2 -17 4 -37 5 -21 11 -52 14 -69 2 -17
11 -53 18 -79 8 -26 12 -53 10 -60 -3 -7 -1 -16 5 -20 6 -3 11 -24 11 -46 0
-21 4 -39 8 -39 4 0 9 -16 10 -36 2 -20 7 -45 12 -55 6 -10 10 -31 10 -48 0
-16 5 -33 10 -36 6 -3 10 -21 10 -39 0 -17 4 -36 9 -41 5 -6 11 -28 14 -50 2
-22 12 -66 21 -98 9 -32 16 -69 16 -82 0 -14 5 -25 11 -25 5 0 8 -4 5 -8 -3
-4 0 -26 5 -48 6 -21 12 -50 14 -62 2 -13 9 -47 16 -75 7 -29 12 -56 10 -61
-1 -6 2 -19 8 -30 5 -12 12 -37 15 -56 2 -19 10 -55 16 -80 6 -25 14 -62 17
-83 3 -20 9 -40 14 -43 5 -3 9 -20 9 -39 0 -19 5 -37 10 -40 6 -3 10 -17 10
-29 0 -13 7 -40 15 -59 17 -40 85 -117 104 -117 7 0 9 -4 6 -10 -4 -6 6 -10
24 -10 16 0 33 -4 36 -10 3 -5 40 -10 81 -10 43 0 74 4 74 10 0 6 11 10 25 10
30 0 115 79 115 107 0 15 2 16 10 3 8 -12 10 -10 10 11 0 28 21 79 33 79 4 0
7 5 7 11 0 5 -6 7 -12 3 -10 -6 -10 -4 -2 7 6 8 17 42 25 77 7 34 17 62 21 62
4 0 8 5 8 11 0 5 -4 7 -10 4 -5 -3 -10 -1 -10 4 0 6 5 11 10 11 6 0 10 18 10
39 0 22 5 43 10 46 6 3 10 24 10 46 0 21 5 39 10 39 6 0 10 17 10 38 0 21 4
42 10 48 5 5 10 24 12 42 1 19 6 36 10 38 4 3 8 16 8 30 0 13 4 24 8 24 5 0 9
17 10 37 1 21 6 39 12 41 5 2 10 21 10 43 0 21 4 39 8 39 4 0 9 17 10 38 2 20
7 39 12 40 6 2 10 17 10 33 0 16 5 29 13 29 9 0 8 3 -2 9 -9 6 -10 11 -2 15 6
4 11 25 11 46 0 21 5 42 10 45 6 3 10 21 10 40 0 19 5 37 10 40 6 3 10 26 10
51 0 24 5 44 10 44 6 0 10 18 10 40 0 22 5 40 10 40 6 0 10 11 10 25 0 14 6
25 13 25 15 0 39 -82 31 -105 -3 -8 -1 -15 5 -15 6 0 11 -17 11 -40 0 -22 4
-40 9 -40 5 0 11 -15 14 -32 3 -18 11 -53 17 -78 6 -25 14 -60 17 -77 3 -18 9
-33 13 -33 4 0 10 -15 13 -32 3 -18 10 -51 16 -73 5 -22 17 -71 26 -110 9 -38
21 -77 25 -86 5 -10 4 -21 -3 -28 -7 -7 -8 -11 0 -11 14 0 46 -116 38 -140 -4
-11 -2 -20 3 -20 5 0 12 -12 15 -27 4 -16 11 -50 17 -78 6 -27 14 -65 17 -82
3 -18 8 -33 12 -33 4 0 8 -17 9 -37 2 -21 7 -39 12 -41 6 -2 10 -21 10 -43 0
-21 5 -39 10 -39 6 0 10 -9 10 -20 0 -21 15 -52 38 -82 8 -9 11 -22 7 -28 -3
-6 -1 -9 7 -8 7 2 12 -3 10 -10 -1 -6 4 -11 10 -10 7 2 12 -2 11 -7 -1 -6 8
-12 20 -12 12 -1 23 -7 25 -13 2 -5 16 -10 30 -10 18 0 23 -3 14 -8 -7 -5 28
-9 78 -11 58 -1 90 2 90 8 0 6 9 11 20 11 11 0 20 5 20 10 0 6 7 10 15 10 23
0 85 66 85 90 0 12 5 18 10 15 6 -4 10 5 10 20 0 14 3 24 8 22 4 -3 8 9 10 26
4 48 7 66 15 73 4 4 7 25 7 46 0 21 5 38 10 38 6 0 10 15 10 34 0 19 6 37 13
40 9 5 9 7 0 12 -8 4 -10 12 -5 22 5 9 15 51 22 92 7 41 17 79 22 85 4 5 8 26
8 46 0 21 5 41 10 44 6 3 10 24 10 46 0 21 5 39 10 39 6 0 10 16 10 35 0 19 4
35 8 35 5 0 10 15 10 33 3 44 7 65 15 73 4 4 7 18 7 31 0 13 4 23 8 23 5 0 9
17 10 37 1 21 6 39 12 41 5 2 10 8 10 13 0 6 -6 7 -12 3 -10 -6 -10 -4 0 7 6
7 12 30 12 51 0 21 5 38 10 38 6 0 10 16 10 35 0 19 5 35 10 35 6 0 10 5 10
11 0 5 -5 7 -12 3 -8 -5 -9 -2 -3 12 7 18 18 69 31 147 4 21 11 40 15 43 5 3
9 23 9 44 0 21 5 42 10 45 6 3 10 22 10 41 0 19 5 34 10 34 6 0 10 18 10 40 0
22 5 40 10 40 6 0 10 14 10 30 0 17 -4 30 -10 30 -5 0 -10 11 -10 25 0 29 -59
95 -85 95 -8 0 -15 4 -15 9 0 11 -106 9 -116 -2 -4 -4 -13 -7 -21 -7 -7 0 -29
-17 -48 -37 -25 -27 -35 -46 -35 -69 0 -18 -4 -36 -10 -39 -5 -3 -10 -26 -10
-51 0 -24 -4 -44 -10 -44 -6 0 -10 -28 -10 -62 0 -35 -4 -58 -8 -51 -4 6 -8
-8 -9 -30 -1 -37 -10 -86 -54 -317 -5 -30 -14 -68 -19 -85 -5 -16 -10 -49 -12
-72 -1 -24 -6 -43 -10 -43 -4 0 -8 -19 -8 -43 0 -24 -4 -47 -9 -52 -5 -6 -11
-28 -14 -50 -4 -22 -11 -65 -17 -95 -6 -30 -14 -79 -17 -108 -3 -28 -9 -50
-14 -46 -5 3 -9 -16 -9 -41 0 -40 -21 -165 -36 -218 -8 -27 -24 -10 -24 26 0
24 -3 28 -10 17 -7 -11 -10 1 -10 40 0 39 -3 51 -10 40 -7 -11 -10 4 -11 50
-1 48 -3 58 -9 40 -6 -19 -8 -8 -10 40 -1 46 -4 59 -10 45 -6 -14 -9 -3 -10
40 -1 43 -4 54 -10 40 -6 -15 -9 -8 -9 28 -1 29 -5 46 -11 42 -6 -4 -10 8 -10
29 0 20 -4 36 -10 36 -5 0 -10 18 -10 40 0 22 -4 40 -10 40 -5 0 -10 18 -10
40 0 22 -4 40 -10 40 -5 0 -10 18 -10 40 0 22 -4 40 -10 40 -5 0 -10 18 -10
41 0 24 -4 38 -10 34 -6 -4 -10 19 -11 62 0 47 -3 62 -9 48 -6 -14 -9 -3 -10
40 -2 46 -4 54 -10 35 -6 -18 -8 -8 -9 40 -1 46 -4 61 -11 50 -7 -11 -10 1
-10 40 0 39 -3 51 -10 40 -7 -11 -10 -4 -10 28 0 23 -4 42 -10 42 -5 0 -10 18
-10 40 0 22 -4 40 -10 40 -5 0 -10 18 -10 41 0 24 -4 38 -10 34 -6 -4 -10 5
-10 19 0 14 -4 26 -10 26 -5 0 -10 9 -10 21 0 11 -4 17 -10 14 -5 -3 -10 1
-10 9 0 9 -7 16 -16 16 -8 0 -12 5 -9 10 3 6 -3 10 -14 10 -11 0 -23 5 -26 10
-3 6 -15 10 -26 10 -10 0 -19 4 -19 8 0 4 -31 7 -70 7 -38 0 -70 -3 -70 -7 0
-5 -9 -8 -19 -8 -11 0 -23 -4 -26 -10 -3 -5 -14 -10 -23 -10 -9 0 -28 -16 -42
-34 -14 -19 -27 -33 -30 -31 -3 2 -7 -6 -7 -18 -1 -12 -7 -31 -12 -42 -9 -18
-25 -79 -52 -187 -5 -21 -13 -55 -19 -75 -5 -21 -14 -58 -20 -83 -7 -25 -14
-64 -17 -87 -3 -24 -9 -43 -14 -43 -5 0 -9 -14 -9 -31 0 -17 -9 -66 -20 -108
-11 -43 -21 -87 -23 -97 -2 -10 -7 -26 -10 -34 -3 -8 -8 -28 -11 -45 -5 -29
-16 -76 -37 -160 -6 -22 -13 -55 -16 -73 -3 -18 -9 -35 -14 -38 -5 -3 -9 -21
-9 -40 0 -19 -4 -34 -10 -34 -5 0 -10 -18 -10 -40 0 -22 -4 -40 -10 -40 -5 0
-10 -18 -10 -40 0 -22 -4 -40 -9 -40 -4 0 -11 -25 -14 -55 -3 -30 -8 -59 -12
-65 -10 -16 -25 -1 -25 26 0 13 -4 24 -10 24 -5 0 -10 23 -10 50 0 28 -4 50
-10 50 -6 0 -10 33 -11 78 -1 54 -3 69 -9 52 -6 -18 -9 -4 -10 50 -2 57 -4 68
-10 45 -6 -23 -8 -14 -9 38 -1 43 -5 66 -11 62 -6 -4 -10 15 -10 49 0 31 -4
56 -10 56 -5 0 -10 18 -10 40 0 22 -4 40 -8 40 -5 0 -9 21 -11 48 -1 26 -6 49
-12 50 -5 2 -9 26 -9 53 0 27 -4 49 -10 49 -5 0 -10 18 -10 40 0 22 -4 40 -8
40 -5 0 -9 21 -11 47 -1 26 -7 50 -13 54 -7 4 -5 8 3 12 10 4 10 6 2 6 -9 1
-13 17 -13 47 0 27 -4 43 -10 39 -6 -4 -10 21 -11 67 0 50 -3 67 -9 53 -6 -14
-9 1 -10 50 -1 49 -4 64 -10 50 -6 -14 -9 -4 -9 38 -1 31 -5 57 -11 57 -5 0
-10 9 -10 20 0 11 -4 20 -10 20 -5 0 -10 9 -10 20 0 11 -6 19 -12 18 -7 -2
-12 3 -10 10 1 8 -2 11 -7 8 -5 -4 -22 -1 -38 5 -38 15 -123 21 -123 9z m2317
-172 c-3 -8 -6 -5 -6 6 -1 11 2 17 5 13 3 -3 4 -12 1 -19z"/>
<path d="M540 3950 c0 -5 -7 -10 -15 -10 -20 0 -65 -45 -65 -65 0 -8 -4 -15
-10 -15 -7 0 -10 -300 -10 -880 0 -580 3 -880 10 -880 6 0 10 -7 10 -15 0 -9
16 -31 35 -50 33 -34 37 -35 110 -35 43 0 75 4 75 10 0 6 7 10 16 10 20 0 44
24 44 44 0 9 5 16 10 16 6 0 10 93 10 258 l0 257 23 11 c14 6 138 11 317 13
203 2 297 6 302 14 4 6 23 11 42 10 20 -1 36 3 36 8 0 5 14 9 30 9 17 0 30 5
30 10 0 6 9 10 20 10 11 0 20 5 20 10 0 6 9 10 20 10 11 0 20 5 20 10 0 6 7
10 16 10 8 0 27 14 41 30 13 17 33 30 44 30 10 0 18 5 17 12 -2 6 7 17 20 23
13 7 24 16 25 21 1 5 5 8 10 6 4 -1 6 4 5 10 -2 7 3 12 10 10 6 -1 12 6 12 16
0 10 9 24 20 32 11 8 20 20 20 26 0 23 28 66 33 52 3 -7 6 2 6 20 1 17 6 32
11 32 6 0 10 17 10 38 0 21 4 42 10 48 5 5 10 31 11 56 1 26 5 45 10 43 4 -3
7 26 7 63 0 46 -2 61 -8 47 -6 -14 -9 3 -9 53 -1 41 -5 72 -11 72 -5 0 -10 14
-10 30 0 17 -4 30 -10 30 -5 0 -10 14 -10 30 0 17 -4 30 -10 30 -5 0 -10 10
-11 23 0 12 -3 16 -6 9 -3 -9 -12 -3 -24 18 -11 17 -16 36 -13 42 4 7 2 8 -4
4 -7 -4 -12 -1 -12 6 -1 7 -21 29 -45 47 -24 19 -41 39 -39 43 3 5 0 7 -8 6
-7 -2 -12 2 -11 9 2 7 -3 10 -11 7 -7 -3 -23 6 -34 20 -11 14 -24 26 -30 26
-13 0 -136 63 -140 73 -2 4 -21 7 -42 7 -21 0 -42 5 -45 10 -3 6 -26 10 -51
10 -24 0 -44 5 -44 10 0 6 -137 10 -390 10 -253 0 -390 -4 -390 -10z m755
-301 c-16 -7 -12 -8 18 -7 23 2 41 -3 46 -11 5 -7 13 -11 17 -8 16 9 76 -21
68 -34 -4 -8 -3 -9 4 -5 15 9 98 -69 121 -114 45 -86 54 -276 17 -345 -9 -16
-16 -36 -16 -42 0 -20 -109 -123 -130 -123 -11 0 -20 -4 -20 -10 0 -5 -9 -10
-20 -10 -11 0 -20 -4 -20 -10 0 -5 -13 -10 -30 -10 -16 0 -30 -4 -30 -9 0 -6
-112 -10 -280 -11 l-280 -1 0 361 c0 256 3 360 11 360 6 0 9 7 6 14 -4 10 -1
13 9 9 7 -3 14 0 14 6 0 8 75 11 258 10 163 0 250 -4 237 -10z"/>
<path d="M7153 3946 c-44 -25 -73 -51 -73 -68 0 -9 -4 -20 -10 -23 -7 -4 -10
-305 -10 -871 0 -569 3 -864 10 -864 6 0 10 -11 10 -24 0 -13 7 -27 16 -30 8
-3 12 -10 9 -16 -3 -5 3 -10 14 -10 12 0 21 -4 21 -10 0 -7 220 -10 640 -10
420 0 640 3 640 10 0 6 9 10 20 10 13 0 20 7 20 20 0 11 5 20 10 20 6 0 10 9
10 20 0 11 5 20 10 20 6 0 10 23 10 50 0 28 -4 50 -10 50 -5 0 -10 7 -10 16 0
17 -36 49 -78 72 -19 9 -141 12 -509 12 -406 0 -487 2 -499 14 -11 12 -14 61
-14 260 l0 246 360 0 c233 0 360 4 360 10 0 6 12 10 26 10 23 0 52 18 57 37 1
4 5 7 10 6 4 -2 7 33 7 77 0 47 -4 80 -10 80 -5 0 -10 9 -10 20 0 13 -7 20
-20 20 -11 0 -20 5 -20 10 0 6 -9 10 -19 10 -11 0 -23 5 -26 10 -4 6 -135 10
-361 10 l-354 0 0 240 c0 160 3 240 10 240 6 0 10 8 8 18 -3 16 27 17 500 20
323 1 502 6 502 12 0 6 7 10 16 10 20 0 44 24 44 44 0 9 5 16 11 16 6 0 9 25
8 65 -1 36 -6 65 -11 65 -4 0 -8 12 -8 26 0 14 -4 23 -9 19 -5 -3 -16 2 -24
10 -9 8 -23 15 -31 15 -9 0 -16 5 -16 10 0 16 -1199 12 -1227 -4z"/>
<path d="M8885 3950 c-3 -5 -13 -10 -21 -10 -20 0 -64 -45 -64 -65 0 -8 -4
-15 -10 -15 -7 0 -10 -300 -10 -880 0 -580 3 -880 10 -880 6 0 10 -7 10 -15 0
-9 16 -31 35 -50 33 -34 37 -35 110 -35 43 0 75 4 75 10 0 6 7 10 16 10 20 0
44 24 44 44 0 9 5 16 10 16 6 0 10 107 10 300 l0 300 176 0 175 0 95 -96 c52
-53 94 -102 94 -110 0 -8 5 -13 11 -11 6 1 16 -7 22 -17 7 -11 108 -116 225
-233 l213 -213 59 0 c33 0 60 4 60 10 0 6 7 10 15 10 8 0 15 4 15 9 0 5 9 13
20 16 11 3 20 12 20 20 0 7 5 15 11 17 14 5 14 131 0 136 -6 2 -11 8 -11 12 0
5 -108 116 -240 247 -132 130 -240 243 -240 250 0 7 9 13 20 13 11 0 20 5 20
10 0 6 14 10 30 10 17 0 30 5 30 10 0 6 9 10 20 10 11 0 20 5 20 10 0 6 9 10
20 10 11 0 20 5 20 10 0 6 7 10 15 10 19 0 185 164 185 183 0 7 9 19 20 27 12
9 20 26 20 43 0 16 4 26 10 22 6 -3 10 5 10 19 0 14 4 27 9 30 5 3 12 25 16
48 11 72 17 248 8 248 -5 0 -10 19 -12 43 -1 23 -6 46 -12 51 -5 6 -9 20 -9
33 0 13 -4 23 -10 23 -5 0 -10 11 -10 25 0 14 -4 25 -10 25 -5 0 -10 9 -10 21
0 11 -4 17 -10 14 -5 -3 -10 -2 -10 3 0 26 -159 162 -189 162 -6 0 -11 4 -11
9 0 5 -15 14 -32 21 -18 7 -49 19 -68 28 -43 19 -99 32 -165 39 -27 3 -54 9
-59 14 -14 13 -783 12 -791 -1z m255 -302 c0 9 58 12 258 11 153 0 249 -4 237
-9 -14 -6 -1 -9 45 -9 46 -1 61 -4 50 -11 -11 -7 -7 -10 18 -10 17 0 32 -4 32
-10 0 -5 7 -10 15 -10 28 0 118 -88 110 -108 -3 -7 0 -10 5 -7 6 3 11 1 11 -4
2 -13 4 -22 12 -41 8 -22 20 -91 20 -120 0 -29 -12 -98 -20 -120 -4 -8 -7 -17
-8 -20 -18 -53 -99 -140 -129 -140 -9 0 -16 -4 -16 -10 0 -5 -11 -10 -25 -10
-14 0 -25 -4 -25 -10 0 -5 -18 -10 -39 -10 -22 0 -42 -4 -46 -9 -3 -6 -119
-10 -275 -11 l-270 -1 0 321 c0 227 3 320 11 320 6 0 9 6 6 14 -7 19 5 30 15
14 6 -10 8 -10 8 0z m213 -955 c-46 -2 -120 -2 -165 0 -46 1 -9 3 82 3 91 0
128 -2 83 -3z"/>
<path d="M1013 2603 c43 -2 110 -2 150 0 40 1 5 3 -78 3 -82 0 -115 -2 -72 -3z"/>
<path d="M18385 2050 c-3 -5 -1 -10 4 -10 6 0 11 5 11 10 0 6 -2 10 -4 10 -3
0 -8 -4 -11 -10z"/>
</g>
</svg>
